<?xml version="1.0" standalone="no"?>
<!DOCTYPE svg PUBLIC "-//W3C//DTD SVG 20010904//EN"
 "http://www.w3.org/TR/2001/REC-SVG-20010904/DTD/svg10.dtd">
<svg version="1.0" xmlns="http://www.w3.org/2000/svg"
 width="512.000000pt" height="512.000000pt" viewBox="0 0 512.000000 512.000000"
 preserveAspectRatio="xMidYMid meet">

<g transform="translate(0.000000,512.000000) scale(0.100000,-0.100000)"
fill="white" stroke="none">
<path d="M814 4115 c-108 -23 -182 -75 -220 -153 -16 -31 -19 -62 -19 -195 0
-155 1 -159 24 -178 22 -18 49 -19 730 -19 689 0 707 -1 751 -21 98 -44 140
-118 140 -245 0 -70 -4 -89 -27 -134 -35 -65 -91 -106 -162 -120 -33 -6 -319
-10 -741 -10 -779 0 -711 8 -718 -88 -3 -47 0 -62 17 -84 l22 -27 502 -3 c464
-3 505 -4 545 -22 55 -24 116 -94 132 -151 18 -63 9 -179 -18 -232 -26 -50
-84 -100 -132 -113 -20 -6 -232 -10 -508 -10 -518 0 -532 -1 -553 -57 -7 -18
-9 -133 -7 -333 4 -341 5 -350 76 -424 54 -56 107 -77 217 -83 131 -8 142 -4
150 55 21 170 64 268 160 371 71 75 160 132 255 162 91 30 249 30 340 0 201
-64 367 -247 400 -441 7 -36 15 -83 18 -105 l7 -40 584 -3 c423 -1 588 1 597
9 8 7 14 31 14 58 0 122 64 265 165 367 122 123 243 176 410 177 167 1 304
-54 419 -169 97 -97 149 -207 171 -359 l11 -80 180 0 c171 0 181 1 228 25 61
31 110 88 132 152 14 42 15 94 12 396 -5 380 -11 428 -66 507 -37 53 -73 72
-215 112 -148 42 -217 73 -256 119 -17 19 -89 150 -161 292 -71 141 -140 268
-152 282 -43 47 -115 100 -174 127 -57 26 -67 27 -266 33 -113 3 -210 9 -215
13 -4 5 -10 117 -13 250 l-5 242 -28 47 c-32 55 -71 85 -134 104 -67 20 -2527
19 -2619 -1z m3189 -873 c115 -57 147 -98 280 -366 65 -131 116 -241 112 -244
-4 -4 -180 -7 -391 -7 -331 0 -386 2 -394 15 -11 18 -14 623 -3 634 4 4 80 6
168 4 159 -3 161 -3 228 -36z"/>
<path d="M383 3453 c-13 -2 -36 -18 -53 -34 -28 -29 -30 -35 -30 -110 0 -73 2
-81 29 -111 l29 -33 837 -3 837 -2 33 33 c80 80 46 240 -56 261 -35 7 -1590 6
-1626 -1z"/>
<path d="M63 2704 c-46 -23 -66 -72 -61 -150 3 -44 10 -69 23 -85 45 -50 35
-49 808 -49 399 0 739 3 756 6 18 4 45 20 62 36 27 28 29 35 29 107 0 85 -12
111 -60 136 -25 13 -133 15 -777 15 -659 0 -752 -2 -780 -16z"/>
<path d="M1485 1872 c-85 -24 -141 -56 -202 -118 -98 -98 -147 -247 -125 -380
41 -245 268 -413 508 -375 243 37 415 270 376 507 -44 267 -303 437 -557 366z
m191 -253 c46 -14 95 -70 109 -127 33 -127 -54 -242 -185 -242 -172 0 -258
206 -137 327 55 55 124 69 213 42z"/>
<path d="M3882 1879 c-110 -21 -217 -94 -281 -190 -180 -270 -21 -635 301
-690 220 -37 446 110 503 326 83 321 -197 618 -523 554z m179 -265 c40 -20 87
-79 99 -125 21 -78 -6 -152 -76 -205 -30 -23 -49 -29 -103 -32 -59 -3 -71 0
-112 26 -141 91 -105 313 57 351 44 10 97 5 135 -15z"/>
</g>
</svg>
